<svg width="270" height="72" viewBox="0 0 270 72" fill="none" xmlns="http://www.w3.org/2000/svg">
<g filter="url(#filter0_ddd_91_38)">
<path d="M10.7618 10.7487C11.8583 10.7487 12.4848 13.8929 13.4134 14.9953C14.3421 16.0976 15.377 15.9473 16.0818 18.0017L14.7393 11.2748C14.7393 10.3479 19.4495 7.88008 17.1391 9.4835C17.3069 9.08265 16.7587 12.4398 17.1391 12.4398L18.4314 14.5067C18.8118 14.5067 20.4564 12.6402 20.6131 13.0411C20.7809 13.4169 20.8648 14.0683 20.8648 14.9953C20.8648 15.9223 20.7809 16.5862 20.6131 16.987C20.4564 17.3628 19.9865 18.8661 19.6061 18.8661L18.4314 17.5507V23.9167L17.5755 37.2953L18.4314 42.9801C18.4314 45.9615 18.1461 53.8283 17.5755 55.9578C17.0161 58.1124 15.8133 59.0394 14.7393 60.1668C13.6652 61.2942 12.2722 64 10.7618 64C9.68777 64 9.29059 61.3067 8.19414 60.8808C7.0977 60.48 5.87259 60.9435 4.92159 60.1668C4.48525 59.8161 4.26708 59.1521 4.26708 58.1751C4.26708 57.7742 4.31183 57.2731 4.40133 56.6718C4.60272 55.2939 4.92159 54.6049 5.35793 54.6049C5.481 54.6049 5.60407 54.655 5.72714 54.7552C6.59982 55.4567 6.12816 57.283 7.09035 57.6839C8.05254 58.0848 10.8122 58.1751 11.6961 58.1751C13.24 58.1751 13.9561 56.1833 14.7393 54.5298C15.5224 52.9013 14.7393 51.6232 14.7393 48.7671L15.914 40.2492C14.5267 44.1576 13.033 43.6941 11.6961 46.2621C10.3087 46.2621 9.29059 43.3833 8.19414 42.0054C7.0977 40.6024 4.9104 40.6376 4.28386 38.032C3.65732 35.4264 4.92159 31.944 4.92159 28.4365C3.32912 24.3835 4.28384 21.9351 4.28386 19.6928C4.9104 17.0873 5.77189 15.0955 6.86834 13.7176C7.96478 12.3146 9.3745 10.7487 10.7618 10.7487ZM10.7618 17.1749C10.7618 17.1749 9.19549 14.6571 8.47944 15.6592C7.76339 16.6363 6.92987 21.0332 6.54947 22.812C6.18026 24.5657 8.19414 26.1566 8.19414 28.4365C8.19414 30.7164 6.18026 33.1716 6.54947 34.9504C6.92987 36.7042 7.47809 38.0821 8.19414 39.0843C8.91019 40.0613 10.2528 36.9046 11.2485 36.9046C12.2443 36.9046 12.6415 40.0864 13.4134 39.1594C14.1966 38.2324 14.8064 36.8921 15.2427 35.1383C15.6903 33.3595 15.914 31.2676 15.914 28.8624C15.914 26.4573 15.6903 24.3778 15.2427 22.6241C14.8064 20.8453 14.1966 19.4924 13.4134 18.5654C12.6415 17.6384 11.7576 17.1749 10.7618 17.1749Z" fill="#B0C5C7"/>
<path d="M34.5592 12.4398C35.4318 12.4398 36.2486 12.9409 37.0094 13.943C37.4569 14.5443 37.6807 15.321 37.6807 16.273C37.6807 16.724 37.6304 17.2501 37.5297 17.8514C37.2947 19.2794 36.9702 19.9935 36.5563 19.9935C36.3884 19.9935 36.2318 19.8932 36.0864 19.6928C35.5381 19.0164 34.9508 18.6782 34.3242 18.6782C33.3173 18.6782 33.0264 16.2104 32.0083 17.7888C30.9901 19.3421 29.4294 24.6785 28.7693 27.284C28.1203 29.8896 27.7959 32.658 27.7959 35.5893V42.8799L31.0237 44.6086C31.4041 44.6086 34.1004 43.0803 34.2571 43.4812C34.4249 43.857 34.5088 44.5083 34.5088 45.4353C34.5088 46.3623 31.1915 50.88 31.0237 51.2808C30.8671 51.6567 33.8319 47.9908 33.4515 47.9908L28.7693 53.0405L22.6437 47.9908C22.2633 47.9908 21.9892 47.8029 21.8214 47.4271C21.6647 47.0262 23.1472 47.1891 23.1472 46.2621C23.1472 45.3351 21.6647 43.857 21.8214 43.4812C21.9892 43.0803 23.8856 44.6086 24.266 44.6086L26.5708 45.5481L24.266 36.4912L25.2785 26.0538L24.266 20.8578L23.1472 18.3775C22.7668 18.3775 22.4927 18.1896 22.3248 17.8138C22.1682 17.4129 19.6061 19.793 19.6061 18.8661C19.6061 17.9391 22.1682 14.2437 22.3248 13.8679C22.4927 13.467 22.7668 13.2666 23.1472 13.2666H26.5708C26.9512 13.2666 27.2197 13.467 27.3763 13.8679C27.5442 14.2437 27.6281 14.8951 27.6281 15.822V23.4133C28.1651 21.2086 28.814 19.2794 29.5748 17.6259C30.3356 15.9724 31.1468 14.6946 32.0083 13.7927C32.8697 12.8908 33.72 12.4398 34.5592 12.4398Z" fill="#B0C5C7"/>
<path d="M46.9501 10.7487C49.0535 10.7487 49.5 13.7575 51.308 17.3754C52.3596 19.4799 53.1876 20.695 50.687 25.5804L49.5277 31.3448L51.308 37.145C51.308 39.1242 51.0562 43.5062 51.7946 43.5062H52.382C52.7624 43.5062 53.0309 43.7066 53.1876 44.1075C53.3554 44.4833 53.4393 45.1347 53.4393 46.0617C53.4393 46.9887 53.3554 47.6526 53.1876 48.0534C53.0309 48.4292 51.7946 47.0137 52.382 48.6171H51.308C50.5807 48.6171 49.9542 48.2163 49.4283 47.4146C48.9137 46.5878 48.578 45.3852 48.4214 43.8069C47.504 45.6107 45.2052 45.6232 44.1311 46.6003C43.0682 47.5774 43.2413 49.4439 42.0441 49.4439C40.9141 49.4439 40.6344 47.9377 39.7617 47.0858C38.9002 46.209 37.5017 46.0241 37.0094 44.3706C36.5171 42.717 37.4793 41.2609 37.4793 38.981C36.5563 34.9504 36.9031 31.5933 38.1674 29.7142C39.4317 27.8102 41.0651 31.255 43.0678 31.255C44.8468 31.255 46.5474 27.497 48.1697 28.7747V25.5804C48.1697 23.1502 47.862 21.3714 47.2466 20.244C46.6425 19.0915 46.7879 16.7115 45.4341 16.7115C44.595 16.7115 42.5979 18.7784 41.6917 19.3045C40.7854 19.8306 39.9239 20.5572 39.1072 21.4842C38.917 21.7096 38.7436 21.8224 38.5869 21.8224C38.2177 21.8224 37.9101 21.2211 37.6639 20.0185C37.5408 19.4172 37.4793 18.9162 37.4793 18.5153C37.4793 17.6384 37.6863 16.962 38.1003 16.486C39.0401 15.3836 38.9562 13.5672 40.0302 12.991C44.2607 14.5856 52.203 8.05238 46.9501 10.7487ZM44.1311 33.8481C42.8445 33.8481 40.7798 32.658 40.0302 33.6602C39.2918 34.6373 38.9226 36.2031 38.9226 38.3577C38.9226 40.1866 39.2023 41.6147 39.7617 42.6419C40.3323 43.644 38.4521 42.0054 39.4702 42.0054C41.6967 42.0054 44.0406 41.9952 45.8307 37.8613L48.1697 33.8481C47.4089 33.2969 48.9416 32.0713 48.069 31.7957C47.1963 31.4951 45.015 33.8481 44.1311 33.8481Z" fill="#B0C5C7"/>
<path d="M68.3252 13.0662C68.784 13.0662 68.4931 15.8596 69.2986 13.6299C69.4888 14.0057 68.4931 19.5676 68.4931 20.4444L69.5839 26.4072C69.5839 27.284 69.4888 27.9104 69.2986 28.2862C69.1084 28.662 68.784 28.8499 68.3252 28.8499C67.8665 28.8499 67.5421 28.662 67.3519 28.2862C67.1617 27.9104 67.0666 27.284 67.0666 26.4072C67.0666 24.8789 66.8876 23.526 66.5295 22.3485C66.1715 21.171 65.6345 20.2565 64.9184 19.6051C64.2136 18.9537 63.1954 16.6631 62.1997 16.6631C61.1256 16.6631 60.197 16.3231 59.3467 17.4004C58.4964 18.4777 57.2433 20.4194 56.7622 22.3485C56.2811 24.2776 56.7622 29.3906 56.7622 31.7957C56.7622 34.2259 56.986 35.8649 57.4335 37.794C57.8922 39.6981 58.53 41.1888 59.3467 42.2661C60.1746 43.3434 61.1256 44.1952 62.1997 44.1952C63.229 44.1952 64.2248 43.5313 65.1869 42.8298C66.1603 42.1032 67.0442 41.0635 67.8386 39.7106C68.0735 39.3097 68.2917 39.1093 68.4931 39.1093C68.8175 39.1093 69.1196 39.6229 69.3993 40.6501C69.5671 41.2764 69.651 41.8777 69.651 42.454C69.651 43.3308 69.472 44.0574 69.114 44.6336C68.219 46.1368 66.7869 45.8237 65.5673 46.6755C64.3478 47.5273 63.4751 49.4439 62.1997 49.4439C60.5998 49.4439 59.6376 47.1264 58.4069 45.5481C57.1874 43.9697 55.7888 43.3308 55.1175 40.5749C54.4463 37.8191 54.1106 34.7124 54.1106 31.255C54.1106 27.7976 54.4518 24.691 55.1343 21.9351C55.8168 19.1792 55.5427 17.438 56.7622 15.8596C55.5371 15.2709 60.0516 11.1245 61.6291 11.1245C62.6248 11.1245 64.1073 13.4795 64.9352 14.3063C65.7743 15.108 66.4848 16.2605 67.0666 17.7637V15.5089C67.0666 14.632 67.1617 14.0057 67.3519 13.6299C67.5421 13.2541 67.8386 14.845 68.3252 13.0662Z" fill="#B0C5C7"/>
<path d="M81.9792 5.01182C83.6015 5.01182 82.0024 12.0241 83.1436 13.5022C84.296 14.9554 85.1063 15.3836 85.7217 17.9892C86.337 20.5697 86.6894 23.5511 86.7789 26.9333C86.7789 27.7851 86.695 28.3864 86.5272 28.7372C86.3706 29.0879 80.66 27.8728 85.7217 29.2633H73.5713C73.6496 32.9963 74.1418 35.8273 75.0481 37.7564C75.9655 39.6605 75.9021 42.519 77.5691 42.519C78.5985 42.519 80.9723 40.3244 81.9792 39.7482C82.3345 41.2767 83.87 38.3577 84.6308 37.3806C84.821 37.1551 84.9944 37.0424 85.1511 37.0424C85.5426 37.0424 85.8615 37.7063 86.1077 39.0342C86.2083 39.5603 86.2587 40.0363 86.2587 40.4622C84.6308 40.6501 86.0126 42.241 85.5203 42.7922C84.6588 43.7693 82.0044 43.0052 80.8297 43.6064C79.6549 44.2077 80.8297 46.0617 78.9248 46.0617C77.2354 46.0617 75.7921 45.3351 74.595 43.882C74.1778 43.3757 72.5799 41.036 72.3021 39.7482C71.7826 37.3402 72.7103 35.4269 72.3021 33.6477C71.6756 30.9168 70.9196 31.6308 70.9196 27.8728C70.9196 24.2902 69.3378 16.4985 70.0203 13.7426C70.7027 10.9867 73.5713 13.4795 74.7796 11.9763C75.9879 10.4481 80.424 5.01182 81.9792 5.01182ZM79.8028 10.185C78.4266 10.185 74.4775 14.7823 73.5713 16.3607C72.6762 17.914 74.8747 22.599 74.595 25.38L80.8297 26.4072L83.9931 24.002C83.7581 21.1209 83.2155 18.9287 82.3652 17.4255C81.5261 15.8972 81.2573 10.185 79.8028 10.185Z" fill="#B0C5C7"/>
<path d="M129.346 9.84751C129.804 9.84751 130.129 10.0354 130.319 10.4112C130.509 10.787 130.135 16.1485 130.135 17.0253L130.604 23.1885C130.604 24.0654 130.509 24.6917 130.319 25.0675C130.129 25.4433 129.804 25.6312 129.346 25.6312C128.887 25.6312 128.563 25.4433 128.372 25.0675C128.182 24.6917 128.087 24.0654 128.087 23.1885C128.087 21.6603 127.908 20.3074 127.55 19.1298C127.192 17.9523 126.655 17.0379 125.939 16.3865C125.234 15.7351 124.384 15.4094 123.388 15.4094C122.314 15.4094 121.352 15.948 120.501 17.0253C119.651 18.1026 118.985 19.6059 118.504 21.535C118.023 23.4641 117.783 25.6312 117.783 28.0364C117.783 30.4666 117.335 32.4583 117.783 34.3874C118.241 36.2915 119.55 37.9701 120.367 39.0474C121.195 40.1247 122.146 41.415 123.22 41.415C124.25 41.415 125.245 40.3126 126.207 39.6111C127.181 38.8846 128.065 37.8448 128.859 36.4919C127.55 37.206 128.658 37.92 128.859 37.92C129.184 37.92 129.066 36.8928 129.346 37.92C129.514 38.5463 130.672 38.6591 130.672 39.2353C130.672 40.1122 130.493 40.8387 130.135 41.415C129.239 42.9182 128.182 44.0957 126.963 44.9475C123.388 43.2056 119.78 47.4647 118.504 47.4647C116.904 47.4647 119.684 42.129 118.453 40.5506C117.234 38.9722 116.809 40.1122 116.138 37.3563C115.467 34.6004 116.138 32.3957 116.138 28.9383C116.138 25.4809 115.925 25.1552 116.607 22.3993C117.29 19.6434 117.234 16.5744 118.453 14.996C119.684 13.4176 116.927 11.0877 118.504 11.0877C119.5 11.0877 125.128 10.2609 125.956 11.0877C126.795 11.8894 127.505 13.0418 128.087 14.545V12.2902C128.087 11.4134 128.182 10.787 128.372 10.4112C128.563 10.0354 128.887 9.84751 129.346 9.84751Z" fill="#B0C5C7"/>
<path d="M144.763 11.9513C146.699 13.0536 146.816 11.0744 148.047 12.6277C149.278 14.181 151.868 17.8319 152.561 20.6129C153.266 23.3688 150.491 22.7744 151.991 28.4866C151.991 31.9691 150.48 35.1007 149.775 37.8817C149.082 40.6376 149.278 41.1386 148.047 42.692C144.763 44.4582 145.434 50.684 143.902 50.684C142.369 50.684 144.204 45.6733 142.973 44.12C141.742 42.5667 137.558 40.6376 136.853 37.8817C136.159 35.1007 136.853 33.8481 136.853 30.3656C136.853 26.8832 136.159 21.885 136.853 19.1291C137.558 16.3482 133.15 13.918 134.38 12.3647C135.611 10.8113 143.23 11.9513 144.763 11.9513ZM143.902 15.8596C142.816 15.8596 141.86 16.3983 141.032 17.4756C140.215 18.5278 138.912 15.7344 138.464 17.6635C138.017 19.5676 138.464 26.0314 138.464 28.4866C138.464 30.9419 138.688 33.134 139.135 35.0632C139.583 36.9672 140.215 38.4579 141.032 39.5352C141.86 40.5875 142.816 41.1136 143.902 41.1136C144.987 41.1136 145.938 40.5875 146.755 39.5352C147.582 38.4579 148.22 36.9672 148.668 35.0632C149.115 33.134 150.491 33.8982 150.491 31.4429C150.491 28.9877 149.115 23.8517 148.668 21.9476C148.22 20.0185 148.097 17.7386 147.269 16.6864C146.452 15.6091 144.987 15.8596 143.902 15.8596Z" fill="#B0C5C7"/>
<path d="M159.333 11.9513C160.866 11.9513 163.367 12.7405 164.598 14.2938C165.829 15.8471 165.7 16.1352 166.394 18.9162C167.098 21.6721 168.542 24.2275 168.542 27.71C168.542 31.1924 168.189 34.3241 167.484 37.105C166.791 39.8609 164.536 41.4393 163.306 42.9926C162.075 44.5459 161.84 47.5022 160.307 47.5022C158.774 47.5022 156.246 40.3119 155.015 38.7586C153.784 37.2052 152.693 42.6669 151.988 39.911C151.295 37.1301 153.404 26.2568 153.404 22.7744C153.404 19.292 154.322 19.4548 155.015 16.6989C155.72 13.918 154.338 7.8009 155.569 6.24758C156.8 4.69426 157.801 11.9513 159.333 11.9513ZM160.453 15.083C159.367 15.083 158.411 10.874 157.583 11.9513C156.766 13.0035 156.755 22.3234 156.307 24.2526C155.86 26.1566 155.015 25.2547 155.015 27.71C155.015 30.1652 157.135 31.6684 157.583 33.5975C158.03 35.5016 156.766 37.6813 157.583 38.7586C158.411 39.8108 159.367 41.3516 160.453 41.3516C161.538 41.3516 162.489 39.8108 163.306 38.7586C164.134 37.6813 165.23 38.0696 165.678 36.1655C166.125 34.2364 166.394 32.6079 166.394 30.1527C166.394 27.6974 164.693 24.3152 164.245 22.4111C163.798 20.482 164.134 16.6613 163.306 15.6091C162.489 14.5318 161.538 15.083 160.453 15.083Z" fill="#B0C5C7"/>
<path d="M185.455 44.1944C185.835 44.1944 186.104 44.3949 186.26 44.7957C186.428 45.1715 186.512 45.8229 186.512 46.7499C186.512 47.6769 186.428 48.3408 186.26 48.7417C186.104 49.1175 185.835 49.3054 185.455 49.3054L182.042 47.3136C181.662 47.3136 179.363 49.1175 179.195 48.7417C179.038 48.3408 178.96 47.6769 178.96 46.7499C178.96 45.8229 179.038 45.1715 179.195 44.7957C179.363 44.3949 179.637 44.1944 180.017 44.1944H181.225L176.241 31.3921L173.959 36.9164L172.901 44.7957L175.184 44.1944C175.564 44.1944 175.833 44.3949 175.989 44.7957C176.157 45.1715 176.241 45.8229 176.241 46.7499C176.241 47.6769 176.157 48.3408 175.989 48.7417C175.833 49.1175 175.564 49.3054 175.184 49.3054H169.579C171.05 47.7152 168.924 49.1175 168.756 48.7417C168.6 48.3408 168.521 47.6769 168.521 46.7499C168.521 45.8229 168.6 45.1715 168.756 44.7957C168.924 44.3949 169.198 44.1944 169.579 44.1944L172.124 43.4178L172.901 23.5002V11.6624L171.257 6.58984L170.334 8.02966C169.953 8.02966 169.634 3.75879 169.467 3.38299C169.31 2.98213 168.186 3.48244 168.186 2.55546C168.186 1.62848 168.264 0.977088 168.421 0.601285C168.588 0.200428 169.802 0.601285 170.183 0.601285L172.901 0C172.124 2.55546 173.55 0.200428 173.707 0.601285C173.875 0.977088 173.959 1.62848 173.959 2.55546V29.4254L177.013 27.5213L181.225 18.1638L179.161 19.6921C178.781 19.6921 178.507 19.5042 178.339 19.1284C178.182 18.7275 178.104 18.0636 178.104 17.1366C178.104 16.2096 178.182 15.5582 178.339 15.1824C178.507 14.7816 178.781 14.5812 179.161 14.5812L182.042 15.8596C182.423 15.8596 185.415 14.7816 185.572 15.1824C185.74 15.5582 185.824 16.2096 185.824 17.1366C185.824 18.0636 185.74 18.7275 185.572 19.1284C185.415 19.5042 185.147 19.6921 184.767 19.6921H183.776L178.842 29.4254L184.481 44.1944H185.455Z" fill="#B0C5C7"/>
<path d="M198.159 15.1824C198.618 15.1824 198.942 15.3703 199.132 15.7461C201.823 13.6793 199.418 16.7483 199.418 17.6252V24.7654C199.418 25.6423 199.322 26.2686 199.132 26.6444C198.942 27.0202 198.618 27.2081 198.159 27.2081C197.778 27.2081 197.51 26.8824 197.353 26.2311C196.872 24.1767 196.173 22.7361 195.256 21.9093C194.338 21.0575 194.249 18.8395 192.839 18.8395C191.754 18.8395 189.829 21.07 189.214 21.9469C188.61 22.7987 188.308 24.0013 188.308 25.5546C188.308 26.3563 188.42 27.0077 188.643 27.5088C188.878 28.0099 189.219 28.4232 189.667 28.7489C190.036 29.0245 190.461 29.2375 190.942 29.3878C191.435 29.5381 192.067 29.701 192.839 29.8763C193.924 30.1519 195.451 33.3838 196.111 33.6344C196.783 33.8599 196.76 31.2418 197.353 31.7178C198.248 32.4443 198.64 35.4883 199.132 36.8663C199.636 38.2442 200.19 38.0689 200.19 40.3237C200.19 42.5785 199.949 40.7413 199.434 42.4449C198.931 44.1235 198.338 47.4396 197.353 48.3666C196.38 49.2936 195.932 53.2919 194.567 53.2919C193.359 53.2919 191.86 50.169 190.942 49.4174C192.822 49.3054 188.772 48.5412 188.089 47.013H187.385C187.385 47.8898 187.994 50.6207 187.804 50.9965C187.614 51.3723 187.938 50.5969 187.385 54.2172C186.926 54.2172 186.048 51.3723 185.857 50.9965C185.667 50.6207 185.572 49.9943 185.572 49.1175V40.0982C185.572 39.2213 185.667 38.595 185.857 38.2192C186.048 37.8434 186.372 40.687 186.831 40.687C187.066 40.687 187.25 37.7807 187.385 38.0313C187.737 40.687 187.636 38.6451 187.737 39.1963C188.14 41.6014 189.247 44.1311 190.187 45.2335C191.127 46.3358 191.944 46.111 193.51 46.111C194.808 46.111 195.804 45.5849 196.497 44.5327C197.191 43.4804 197.538 42.0774 197.538 40.3237C197.538 39.4719 197.415 38.7704 197.169 38.2192C196.923 37.668 196.57 37.217 196.111 36.8663C195.72 36.5907 195.267 36.3652 194.752 36.1898C194.249 35.9894 193.605 35.8015 192.822 35.6261C191.77 35.3756 190.892 35.1125 190.187 34.8369C189.482 34.5614 188.833 34.1605 188.241 33.6344C188.643 31.7178 186.786 31.9057 186.327 30.628C185.88 29.3252 185.656 27.6341 185.656 25.5546C185.656 23.375 185.908 21.5085 186.411 19.9551C186.926 18.3768 188.772 18.614 189.667 17.8123C190.573 17.0106 190.456 15.1824 191.597 15.1824C192.682 15.1824 193.672 15.5457 194.567 16.2723C195.474 16.9988 195.463 13.9541 196.111 15.2569L196.9 17.6252C196.9 16.7483 196.995 16.122 197.186 15.7461C197.376 15.3703 197.7 15.1824 198.159 15.1824Z" fill="#B0C5C7"/>
<path d="M206.147 5.29882C206.606 5.29882 206.93 5.48673 207.121 5.86253C207.311 6.23833 207.406 6.86467 207.406 7.74154V19.0156L208.838 21.5711L214.303 19.0156C214.684 19.0156 214.147 21.1702 214.303 21.5711C214.471 21.9469 215.361 20.6441 215.361 21.5711C215.361 22.4981 215.277 23.162 215.109 23.5629C214.952 23.9387 210.511 26.6842 212.743 28.0364L207.121 24.7654L207.406 37.8058C207.406 40.6619 208.402 46.1744 208.838 47.5022C209.286 48.8301 209.28 46.0735 210.376 46.0735C211.344 47.4772 211.915 45.7352 212.743 45.0588C213.571 44.3823 214.371 43.4804 215.143 42.353C215.299 42.1025 214.303 44.7582 215.663 41.9772C216.043 41.9772 215.394 43.9439 215.663 45.0964C215.808 45.7478 216.854 44.921 216.854 45.397C216.854 46.1987 216.67 46.8501 216.301 47.3512C215.428 48.5788 216.183 46.7005 215.109 47.5022C214.035 48.2789 210.376 49.1718 210.376 51.5602C208.474 51.5602 207.031 47.6017 206.147 45.397C205.275 43.1672 205.174 36.6909 205.174 32.2815L204.889 24.1266H201.482C201.101 24.1266 200.827 23.9387 200.659 23.5629C200.503 23.162 200.424 22.4981 200.424 21.5711C200.424 20.6441 200.503 19.9927 200.659 19.6169C200.827 19.2161 202.729 19.9559 203.11 19.9559L204.889 19.0156V10.4112C205.174 13.7942 204.984 6.23833 205.174 5.86253C205.364 5.48673 205.689 5.29882 206.147 5.29882Z" fill="#B0C5C7"/>
<path d="M223.551 12.8643C225.083 12.8643 226.465 18.6273 227.696 20.1806C228.926 21.7339 229.889 21.9837 230.582 24.7647C231.287 27.5206 230.582 30.7156 230.582 34.1981C230.582 37.6805 233.385 37.6547 232.68 40.4357C231.986 43.1916 227.634 45.6505 226.404 47.2038C225.173 48.7571 223.551 56.3196 223.551 51.5602C222.018 51.5602 220.62 48.7571 219.389 47.2038C218.158 45.6505 217.207 45.5223 216.502 42.7664C215.808 39.9855 216.502 33.4332 216.502 29.9508C216.502 26.4683 215.808 26.7697 216.502 24.0138C217.207 21.2329 219.45 20.3803 220.681 18.827C221.911 17.2737 222.018 12.8643 223.551 12.8643ZM224.293 18.7533C223.208 18.7533 221.509 21.283 220.681 22.3603C219.864 23.4125 219.232 27.3091 218.784 29.2382C218.337 31.1423 218.113 30.9161 218.113 33.3713C218.113 35.8266 218.337 38.0187 218.784 39.9479C219.232 41.8519 219.864 43.3426 220.681 44.4199C221.509 45.4722 222.465 45.9983 223.551 45.9983C223.551 47.3129 225.587 45.4722 226.404 44.4199C227.231 43.3426 228.54 43.1547 228.988 41.2507C229.436 39.3216 228.988 35.8266 228.988 33.3713C228.988 30.9161 228.764 28.7364 228.317 26.8323C227.869 24.9032 227.231 23.4125 226.404 22.3603C225.587 21.283 225.379 18.7533 224.293 18.7533Z" fill="#B0C5C7"/>
<path d="M244.512 5.86253C245.53 5.86253 245.491 13.8804 246.24 14.8825C248.573 14.8074 248.17 14.9076 248.573 16.7616C249.949 18.2014 250.755 23.0743 250.755 25.5546L248.573 43.8194H249.949C250.329 43.8194 250.598 44.0198 250.755 44.4207C250.922 44.7965 251.006 45.4479 251.006 46.3748C251.006 47.3018 250.922 47.9657 250.755 48.3666C250.598 48.7424 250.329 54.2172 249.949 54.2172L244.512 48.9303C244.131 48.9303 246.24 48.178 243.689 48.3666C243.533 47.9657 243.454 47.3018 243.454 46.3748C243.454 45.4479 243.533 44.7965 243.689 44.4207C243.857 44.0198 244.131 43.8194 244.512 43.8194H246.056L247.298 39.2338L246.24 32.056C246.24 29.8262 245.826 22.1982 245.367 20.8954C244.909 19.5926 244.232 18.9412 243.337 18.9412C242.386 18.9412 241.396 17.7136 240.568 18.9412C239.751 20.1688 239.197 23.7014 238.705 25.856C238.213 28.0106 236.741 32.4068 236.741 35.0624L237.966 43.8194H239.51C239.891 43.8194 240.159 44.0198 240.316 44.4207C240.484 44.7965 240.568 45.4479 240.568 46.3748C240.568 47.3018 240.484 47.9657 240.316 48.3666C240.159 48.7424 239.891 48.9303 239.51 48.9303L236.741 47.5391C236.361 47.5391 233.418 48.7424 233.251 48.3666C233.094 47.9657 233.016 47.3018 233.016 46.3748C233.016 45.4479 233.094 44.7965 233.251 44.4207C233.418 44.0198 233.693 43.8194 234.073 43.8194H235.449V23.3757L234.704 19.0532C234.323 19.0532 233.083 19.1291 232.915 18.7533C232.758 18.3525 232.68 17.6885 232.68 16.7616C232.68 15.8346 234.073 17.1742 232.915 14.8074C233.083 14.4065 234.323 15.4087 234.704 15.4087L236.741 14.2061C237.122 14.2061 237.39 14.4065 237.547 14.8074C237.715 15.1832 238.73 18.5271 237.799 16.7616V21.2712C238.537 18.7157 239.399 16.7616 240.383 15.4087C241.379 14.0558 243.37 5.86253 244.512 5.86253Z" fill="#B0C5C7"/>
<path d="M129.346 9.84751C129.804 9.84751 130.129 10.0354 130.319 10.4112C130.509 10.787 130.135 16.1485 130.135 17.0253L130.604 23.1885C130.604 24.0654 130.509 24.6917 130.319 25.0675C130.129 25.4433 129.804 25.6312 129.346 25.6312C128.887 25.6312 128.563 25.4433 128.372 25.0675C128.182 24.6917 128.087 24.0654 128.087 23.1885C128.087 21.6603 127.908 20.3074 127.55 19.1298C127.192 17.9523 126.655 17.0379 125.939 16.3865C125.234 15.7351 124.384 15.4094 123.388 15.4094C122.314 15.4094 121.352 15.948 120.501 17.0253C119.651 18.1026 118.985 19.6059 118.504 21.535C118.023 23.4641 117.783 25.6312 117.783 28.0364C117.783 30.4666 117.335 32.4583 117.783 34.3874C118.241 36.2915 119.55 37.9701 120.367 39.0474C121.195 40.1247 122.146 41.415 123.22 41.415C124.25 41.415 125.245 40.3126 126.207 39.6111C127.181 38.8846 128.065 37.8448 128.859 36.4919C127.55 37.206 128.658 37.92 128.859 37.92C129.184 37.92 129.066 36.8928 129.346 37.92C129.514 38.5463 130.672 38.6591 130.672 39.2353C130.672 40.1122 130.493 40.8387 130.135 41.415C129.239 42.9182 128.182 44.0957 126.963 44.9475C123.388 43.2056 119.78 47.4647 118.504 47.4647C116.904 47.4647 119.684 42.129 118.453 40.5506C117.234 38.9722 116.809 40.1122 116.138 37.3563C115.467 34.6004 116.138 32.3957 116.138 28.9383C116.138 25.4809 115.925 25.1552 116.607 22.3993C117.29 19.6434 117.234 16.5744 118.453 14.996C119.684 13.4176 116.927 11.0877 118.504 11.0877C119.5 11.0877 125.128 10.2609 125.956 11.0877C126.795 11.8894 127.505 13.0418 128.087 14.545V12.2902C128.087 11.4134 128.182 10.787 128.372 10.4112C128.563 10.0354 128.887 9.84751 129.346 9.84751Z" fill="#B0C5C7"/>
</g>
<g filter="url(#filter1_ddddd_91_38)">
<path d="M67.3736 30.7906L70.2824 28.3103L71.8664 27.6759L71.2363 31.2161L69.1938 30.5533L67.3736 30.7906Z" fill="#E6E6E6"/>
</g>
<g filter="url(#filter2_dd_91_38)">
<path d="M257.081 42.9838L261.599 40.9427L264.586 41.0357L265.812 46.5269L260.06 47.7564L257.081 42.9838Z" fill="#B0C5C7"/>
</g>
<g filter="url(#filter3_ddddd_91_38)">
<path d="M67.3736 30.7906L70.2824 28.3103L71.8664 27.6759L71.2363 31.2161L69.1938 30.5533L67.3736 30.7906Z" fill="#B0C5C7"/>
</g>
<defs>
<filter id="filter0_ddd_91_38" x="0" y="0" width="255.006" height="72" filterUnits="userSpaceOnUse" color-interpolation-filters="sRGB">
<feFlood flood-opacity="0" result="BackgroundImageFix"/>
<feColorMatrix in="SourceAlpha" type="matrix" values="0 0 0 0 0 0 0 0 0 0 0 0 0 0 0 0 0 0 127 0" result="hardAlpha"/>
<feOffset dy="4"/>
<feGaussianBlur stdDeviation="2"/>
<feComposite in2="hardAlpha" operator="out"/>
<feColorMatrix type="matrix" values="0 0 0 0 0 0 0 0 0 0 0 0 0 0 0 0 0 0 0.25 0"/>
<feBlend mode="normal" in2="BackgroundImageFix" result="effect1_dropShadow_91_38"/>
<feColorMatrix in="SourceAlpha" type="matrix" values="0 0 0 0 0 0 0 0 0 0 0 0 0 0 0 0 0 0 127 0" result="hardAlpha"/>
<feOffset dy="4"/>
<feGaussianBlur stdDeviation="2"/>
<feComposite in2="hardAlpha" operator="out"/>
<feColorMatrix type="matrix" values="0 0 0 0 0 0 0 0 0 0 0 0 0 0 0 0 0 0 0.25 0"/>
<feBlend mode="normal" in2="effect1_dropShadow_91_38" result="effect2_dropShadow_91_38"/>
<feColorMatrix in="SourceAlpha" type="matrix" values="0 0 0 0 0 0 0 0 0 0 0 0 0 0 0 0 0 0 127 0" result="hardAlpha"/>
<feOffset dy="4"/>
<feGaussianBlur stdDeviation="2"/>
<feComposite in2="hardAlpha" operator="out"/>
<feColorMatrix type="matrix" values="0 0 0 0 0 0 0 0 0 0 0 0 0 0 0 0 0 0 0.25 0"/>
<feBlend mode="normal" in2="effect2_dropShadow_91_38" result="effect3_dropShadow_91_38"/>
<feBlend mode="normal" in="SourceGraphic" in2="effect3_dropShadow_91_38" result="shape"/>
</filter>
<filter id="filter1_ddddd_91_38" x="63.3737" y="27.6758" width="12.4928" height="11.5405" filterUnits="userSpaceOnUse" color-interpolation-filters="sRGB">
<feFlood flood-opacity="0" result="BackgroundImageFix"/>
<feColorMatrix in="SourceAlpha" type="matrix" values="0 0 0 0 0 0 0 0 0 0 0 0 0 0 0 0 0 0 127 0" result="hardAlpha"/>
<feOffset dy="4"/>
<feGaussianBlur stdDeviation="2"/>
<feComposite in2="hardAlpha" operator="out"/>
<feColorMatrix type="matrix" values="0 0 0 0 0 0 0 0 0 0 0 0 0 0 0 0 0 0 0.25 0"/>
<feBlend mode="normal" in2="BackgroundImageFix" result="effect1_dropShadow_91_38"/>
<feColorMatrix in="SourceAlpha" type="matrix" values="0 0 0 0 0 0 0 0 0 0 0 0 0 0 0 0 0 0 127 0" result="hardAlpha"/>
<feOffset dy="4"/>
<feGaussianBlur stdDeviation="2"/>
<feComposite in2="hardAlpha" operator="out"/>
<feColorMatrix type="matrix" values="0 0 0 0 0 0 0 0 0 0 0 0 0 0 0 0 0 0 0.25 0"/>
<feBlend mode="normal" in2="effect1_dropShadow_91_38" result="effect2_dropShadow_91_38"/>
<feColorMatrix in="SourceAlpha" type="matrix" values="0 0 0 0 0 0 0 0 0 0 0 0 0 0 0 0 0 0 127 0" result="hardAlpha"/>
<feOffset dy="4"/>
<feGaussianBlur stdDeviation="2"/>
<feComposite in2="hardAlpha" operator="out"/>
<feColorMatrix type="matrix" values="0 0 0 0 0 0 0 0 0 0 0 0 0 0 0 0 0 0 0.25 0"/>
<feBlend mode="normal" in2="effect2_dropShadow_91_38" result="effect3_dropShadow_91_38"/>
<feColorMatrix in="SourceAlpha" type="matrix" values="0 0 0 0 0 0 0 0 0 0 0 0 0 0 0 0 0 0 127 0" result="hardAlpha"/>
<feOffset dy="4"/>
<feGaussianBlur stdDeviation="2"/>
<feComposite in2="hardAlpha" operator="out"/>
<feColorMatrix type="matrix" values="0 0 0 0 0 0 0 0 0 0 0 0 0 0 0 0 0 0 0.25 0"/>
<feBlend mode="normal" in2="effect3_dropShadow_91_38" result="effect4_dropShadow_91_38"/>
<feColorMatrix in="SourceAlpha" type="matrix" values="0 0 0 0 0 0 0 0 0 0 0 0 0 0 0 0 0 0 127 0" result="hardAlpha"/>
<feOffset dy="4"/>
<feGaussianBlur stdDeviation="2"/>
<feComposite in2="hardAlpha" operator="out"/>
<feColorMatrix type="matrix" values="0 0 0 0 0 0 0 0 0 0 0 0 0 0 0 0 0 0 0.25 0"/>
<feBlend mode="normal" in2="effect4_dropShadow_91_38" result="effect5_dropShadow_91_38"/>
<feBlend mode="normal" in="SourceGraphic" in2="effect5_dropShadow_91_38" result="shape"/>
</filter>
<filter id="filter2_dd_91_38" x="253.081" y="40.9429" width="16.7312" height="14.8135" filterUnits="userSpaceOnUse" color-interpolation-filters="sRGB">
<feFlood flood-opacity="0" result="BackgroundImageFix"/>
<feColorMatrix in="SourceAlpha" type="matrix" values="0 0 0 0 0 0 0 0 0 0 0 0 0 0 0 0 0 0 127 0" result="hardAlpha"/>
<feOffset dy="4"/>
<feGaussianBlur stdDeviation="2"/>
<feComposite in2="hardAlpha" operator="out"/>
<feColorMatrix type="matrix" values="0 0 0 0 0 0 0 0 0 0 0 0 0 0 0 0 0 0 0.25 0"/>
<feBlend mode="normal" in2="BackgroundImageFix" result="effect1_dropShadow_91_38"/>
<feColorMatrix in="SourceAlpha" type="matrix" values="0 0 0 0 0 0 0 0 0 0 0 0 0 0 0 0 0 0 127 0" result="hardAlpha"/>
<feOffset dy="4"/>
<feGaussianBlur stdDeviation="2"/>
<feComposite in2="hardAlpha" operator="out"/>
<feColorMatrix type="matrix" values="0 0 0 0 0.4125 0 0 0 0 0.4125 0 0 0 0 0.4125 0 0 0 1 0"/>
<feBlend mode="normal" in2="effect1_dropShadow_91_38" result="effect2_dropShadow_91_38"/>
<feBlend mode="normal" in="SourceGraphic" in2="effect2_dropShadow_91_38" result="shape"/>
</filter>
<filter id="filter3_ddddd_91_38" x="63.3737" y="27.6758" width="12.4928" height="11.5405" filterUnits="userSpaceOnUse" color-interpolation-filters="sRGB">
<feFlood flood-opacity="0" result="BackgroundImageFix"/>
<feColorMatrix in="SourceAlpha" type="matrix" values="0 0 0 0 0 0 0 0 0 0 0 0 0 0 0 0 0 0 127 0" result="hardAlpha"/>
<feOffset dy="4"/>
<feGaussianBlur stdDeviation="2"/>
<feComposite in2="hardAlpha" operator="out"/>
<feColorMatrix type="matrix" values="0 0 0 0 0 0 0 0 0 0 0 0 0 0 0 0 0 0 0.25 0"/>
<feBlend mode="normal" in2="BackgroundImageFix" result="effect1_dropShadow_91_38"/>
<feColorMatrix in="SourceAlpha" type="matrix" values="0 0 0 0 0 0 0 0 0 0 0 0 0 0 0 0 0 0 127 0" result="hardAlpha"/>
<feOffset dy="4"/>
<feGaussianBlur stdDeviation="2"/>
<feComposite in2="hardAlpha" operator="out"/>
<feColorMatrix type="matrix" values="0 0 0 0 0 0 0 0 0 0 0 0 0 0 0 0 0 0 0.25 0"/>
<feBlend mode="normal" in2="effect1_dropShadow_91_38" result="effect2_dropShadow_91_38"/>
<feColorMatrix in="SourceAlpha" type="matrix" values="0 0 0 0 0 0 0 0 0 0 0 0 0 0 0 0 0 0 127 0" result="hardAlpha"/>
<feOffset dy="4"/>
<feGaussianBlur stdDeviation="2"/>
<feComposite in2="hardAlpha" operator="out"/>
<feColorMatrix type="matrix" values="0 0 0 0 0 0 0 0 0 0 0 0 0 0 0 0 0 0 0.25 0"/>
<feBlend mode="normal" in2="effect2_dropShadow_91_38" result="effect3_dropShadow_91_38"/>
<feColorMatrix in="SourceAlpha" type="matrix" values="0 0 0 0 0 0 0 0 0 0 0 0 0 0 0 0 0 0 127 0" result="hardAlpha"/>
<feOffset dy="4"/>
<feGaussianBlur stdDeviation="2"/>
<feComposite in2="hardAlpha" operator="out"/>
<feColorMatrix type="matrix" values="0 0 0 0 0 0 0 0 0 0 0 0 0 0 0 0 0 0 0.25 0"/>
<feBlend mode="normal" in2="effect3_dropShadow_91_38" result="effect4_dropShadow_91_38"/>
<feColorMatrix in="SourceAlpha" type="matrix" values="0 0 0 0 0 0 0 0 0 0 0 0 0 0 0 0 0 0 127 0" result="hardAlpha"/>
<feOffset dy="4"/>
<feGaussianBlur stdDeviation="2"/>
<feComposite in2="hardAlpha" operator="out"/>
<feColorMatrix type="matrix" values="0 0 0 0 0 0 0 0 0 0 0 0 0 0 0 0 0 0 0.25 0"/>
<feBlend mode="normal" in2="effect4_dropShadow_91_38" result="effect5_dropShadow_91_38"/>
<feBlend mode="normal" in="SourceGraphic" in2="effect5_dropShadow_91_38" result="shape"/>
</filter>
</defs>
</svg>
