<svg width="689" height="179" viewBox="0 0 689 179" fill="none" xmlns="http://www.w3.org/2000/svg">
<g filter="url(#filter0_ddd_91_32)">
<path d="M21.9855 28.7192C24.9019 28.7192 26.5684 37.1202 29.0384 40.0655C31.5084 43.0109 34.2611 42.6092 36.1359 48.0983L32.5648 30.1249C32.5648 27.6482 45.0933 21.0546 38.9481 25.3387C39.3945 24.2677 37.9363 33.2376 38.9481 33.2376L42.3853 38.7602C43.3971 38.7602 47.7717 33.7732 48.1883 34.8442C48.6347 35.8483 48.8579 37.5887 48.8579 40.0655C48.8579 42.5423 48.6347 44.3162 48.1883 45.3872C47.7717 46.3913 46.5218 50.4077 45.51 50.4077L42.3853 46.8934V63.9024L40.1087 99.6483L42.3853 114.837C42.3853 122.803 41.6264 143.822 40.1087 149.512C38.6208 155.269 35.4217 157.746 32.5648 160.758C29.7079 163.77 26.0029 171 21.9855 171C19.1286 171 18.0722 163.804 15.1558 162.666C12.2394 161.595 8.9808 162.833 6.45128 160.758C5.29068 159.821 4.71038 158.047 4.71038 155.436C4.71038 154.365 4.82942 153.027 5.06749 151.42C5.60315 147.738 6.45129 145.898 7.61189 145.898C7.93924 145.898 8.26658 146.031 8.59393 146.299C10.9151 148.173 9.6606 153.053 12.2199 154.124C14.7791 155.195 22.1194 155.436 24.4704 155.436C28.5771 155.436 30.4817 150.115 32.5648 145.697C34.6479 141.346 32.5648 137.931 32.5648 130.3L35.6895 107.541C31.9994 117.984 28.0266 116.745 24.4704 123.607C20.7802 123.607 18.0722 115.915 15.1558 112.233C12.2394 108.484 6.42153 108.579 4.75502 101.617C3.08852 94.655 6.45128 85.3504 6.45128 75.9788C2.21557 65.1498 4.75497 58.6079 4.75502 52.6167C6.42153 45.655 8.71297 40.3333 11.6294 36.6516C14.5457 32.9029 18.2954 28.7192 21.9855 28.7192ZM21.9855 45.8893C21.9855 45.8893 17.8192 39.1618 15.9146 41.8394C14.0101 44.4501 11.793 56.198 10.7812 60.9508C9.79917 65.6366 15.1558 69.8872 15.1558 75.9788C15.1558 82.0703 9.79917 88.6304 10.7812 93.3832C11.793 98.0689 13.2512 101.751 15.1558 104.428C17.0604 107.039 20.6314 98.6045 23.28 98.6045C25.9286 98.6045 26.985 107.106 29.0384 104.629C31.1215 102.152 32.7434 98.571 33.904 93.8852C35.0943 89.1325 35.6895 83.543 35.6895 77.1168C35.6895 70.6905 35.0943 65.1345 33.904 60.4487C32.7434 55.696 31.1215 52.0812 29.0384 49.6045C26.985 47.1277 24.634 45.8893 21.9855 45.8893Z" fill="#D1AB7A"/>
<path d="M85.2828 33.2376C87.604 33.2376 89.7765 34.5764 91.8001 37.254C92.9905 38.8606 93.5856 40.9357 93.5856 43.4795C93.5856 44.6844 93.4517 46.0901 93.1839 47.6967C92.559 51.5122 91.6959 53.42 90.5948 53.42C90.1484 53.42 89.7318 53.1523 89.3449 52.6168C87.8867 50.8094 86.3244 49.9057 84.6579 49.9057C81.9796 49.9057 81.2058 43.3121 78.4978 47.5293C75.7897 51.6796 71.6383 65.9378 69.8826 72.8995C68.1565 79.8613 67.2935 87.2582 67.2935 95.0901V114.57L75.879 119.188C76.8908 119.188 84.0627 115.105 84.4793 116.176C84.9257 117.18 85.1489 118.921 85.1489 121.398C85.1489 123.874 76.3254 135.945 75.879 137.016C75.4624 138.02 83.3485 128.225 82.3367 128.225L69.8826 141.718L53.5895 128.225C52.5777 128.225 51.8486 127.723 51.4022 126.719C50.9856 125.648 54.9286 126.083 54.9286 123.607C54.9286 121.13 50.9856 117.18 51.4022 116.176C51.8486 115.105 56.8927 119.188 57.9046 119.188L64.0349 121.699L57.9046 97.5L60.5977 69.6125L57.9046 55.7295L54.9286 49.1024C53.9168 49.1024 53.1878 48.6004 52.7414 47.5963C52.3247 46.5252 45.51 52.8845 45.51 50.4077C45.51 47.931 52.3247 38.0573 52.7414 37.0532C53.1878 35.9822 53.9168 35.4467 54.9286 35.4467H64.0349C65.0467 35.4467 65.7609 35.9822 66.1776 37.0532C66.6239 38.0573 66.8471 39.7978 66.8471 42.2745V62.5573C68.2756 56.6666 70.0016 51.5122 72.0252 47.0942C74.0488 42.6762 76.2063 39.2622 78.4978 36.8524C80.7892 34.4426 83.0509 33.2376 85.2828 33.2376Z" fill="#D1AB7A"/>
<path d="M118.241 28.7192C123.836 28.7192 125.023 36.7583 129.832 46.4248C132.629 52.0478 134.832 55.2944 128.18 68.3476L125.097 83.7493L129.832 99.2467C129.832 104.535 129.163 116.243 131.127 116.243H132.689C133.701 116.243 134.415 116.779 134.832 117.85C135.278 118.854 135.501 120.594 135.501 123.071C135.501 125.548 135.278 127.322 134.832 128.393C134.415 129.397 131.127 125.615 132.689 129.899H129.832C127.898 129.899 126.231 128.828 124.833 126.686C123.464 124.477 122.571 121.264 122.154 117.046C119.714 121.866 113.6 121.9 110.743 124.51C107.916 127.121 108.376 132.108 105.192 132.108C102.186 132.108 101.442 128.083 99.1208 125.807C96.8294 123.465 93.1095 122.971 91.8001 118.553C90.4907 114.135 93.05 110.244 93.05 104.152C90.5948 93.3831 91.5174 84.4132 94.8802 79.3927C98.2429 74.3053 102.588 83.5095 107.915 83.5095C112.646 83.5095 117.17 73.4685 121.485 76.8825V68.3476C121.485 61.8545 120.666 57.1017 119.03 54.0894C117.423 51.0102 117.809 44.6509 114.209 44.6509C111.977 44.6509 106.665 50.1735 104.254 51.5792C101.844 52.9849 99.5523 54.9262 97.3799 57.403C96.874 58.0054 96.4128 58.3067 95.9961 58.3067C95.0141 58.3067 94.1957 56.7001 93.541 53.487C93.2137 51.8804 93.05 50.5416 93.05 49.4706C93.05 47.1277 93.6005 45.3203 94.7016 44.0484C97.2014 41.1031 96.9782 36.2499 99.8351 34.7103C111.088 38.971 132.213 21.5149 118.241 28.7192ZM110.743 90.4378C107.32 90.4378 101.829 87.2582 99.8351 89.9358C97.871 92.5464 96.8889 96.7302 96.8889 102.487C96.8889 107.374 97.6329 111.189 99.1208 113.934C100.639 116.611 95.6375 112.233 98.3455 112.233C104.268 112.233 110.502 112.206 115.264 101.161L121.485 90.4378C119.461 88.9651 123.538 85.6906 121.217 84.9542C118.896 84.151 113.094 90.4378 110.743 90.4378Z" fill="#D1AB7A"/>
<path d="M175.096 34.9111C176.316 34.9111 175.542 42.3749 177.685 36.4173C178.19 37.4214 175.542 52.2821 175.542 54.625L178.443 70.5566C178.443 72.8995 178.19 74.573 177.685 75.5771C177.179 76.5812 176.316 77.0833 175.096 77.0833C173.875 77.0833 173.012 76.5812 172.507 75.5771C172.001 74.573 171.748 72.8995 171.748 70.5566C171.748 66.4733 171.272 62.8586 170.319 59.7124C169.367 56.5662 167.939 54.1229 166.034 52.3825C164.159 50.642 161.451 44.5217 158.803 44.5217C155.946 44.5217 153.476 43.6133 151.214 46.4917C148.952 49.3702 145.619 54.558 144.34 59.7124C143.06 64.8668 144.34 78.528 144.34 84.9542C144.34 91.4474 144.935 95.8265 146.125 100.981C147.345 106.068 149.042 110.051 151.214 112.93C153.416 115.808 155.946 118.084 158.803 118.084C161.54 118.084 164.189 116.31 166.748 114.436C169.337 112.495 171.688 109.716 173.801 106.102C174.426 105.031 175.006 104.495 175.542 104.495C176.405 104.495 177.208 105.867 177.952 108.612C178.399 110.285 178.622 111.892 178.622 113.432C178.622 115.775 178.146 117.716 177.194 119.255C174.813 123.272 171.004 122.435 167.76 124.711C164.516 126.987 162.195 132.108 158.803 132.108C154.547 132.108 151.988 125.916 148.714 121.699C145.47 117.482 141.751 115.775 139.965 108.411C138.18 101.048 137.287 92.7472 137.287 83.5095C137.287 74.2718 138.194 65.9713 140.01 58.6079C141.825 51.2445 141.096 46.5922 144.34 42.3749C141.081 40.8019 153.089 29.7233 157.285 29.7233C159.933 29.7233 163.876 36.0156 166.079 38.2247C168.311 40.3667 170.2 43.446 171.748 47.4624V41.4378C171.748 39.0949 172.001 37.4214 172.507 36.4173C173.012 35.4132 173.801 39.6639 175.096 34.9111Z" fill="#D1AB7A"/>
<path d="M211.413 13.3909C215.728 13.3909 211.475 32.1269 214.51 36.0763C217.575 39.9588 219.731 41.1031 221.367 48.0649C223.004 54.9597 223.942 62.9255 224.18 71.9624C224.18 74.2384 223.956 75.8449 223.51 76.7821C223.093 77.7192 207.904 74.4727 221.367 78.1878H189.049C189.257 88.1619 190.567 95.7261 192.977 100.88C195.418 105.968 195.249 113.605 199.683 113.605C202.421 113.605 208.735 107.742 211.413 106.202C212.358 110.286 216.442 102.487 218.466 99.8763C218.972 99.2739 219.433 98.9727 219.85 98.9727C220.891 98.9727 221.739 100.747 222.394 104.294C222.662 105.7 222.796 106.972 222.796 108.11C218.466 108.612 222.141 112.863 220.832 114.335C218.54 116.946 211.48 114.904 208.356 116.511C205.231 118.118 208.356 123.071 203.289 123.071C198.795 123.071 194.956 121.13 191.772 117.247C190.663 115.894 186.412 109.643 185.673 106.202C184.292 99.7684 186.759 94.6563 185.673 89.9023C184.007 82.6059 181.996 84.5136 181.996 74.4727C181.996 64.9002 177.789 44.0819 179.604 36.7185C181.419 29.3552 189.049 36.0157 192.263 31.9993C195.477 27.9159 207.277 13.3909 211.413 13.3909ZM205.624 27.2131C201.964 27.2131 191.46 39.4966 189.049 43.7138C186.668 47.864 192.516 60.3818 191.772 67.8121L208.356 70.5566L216.77 64.1304C216.145 56.4323 214.701 50.5751 212.44 46.5587C210.208 42.4754 209.493 27.2131 205.624 27.2131Z" fill="#D1AB7A"/>
<path d="M337.401 26.3113C338.621 26.3113 339.484 26.8134 339.99 27.8175C340.496 28.8216 339.499 43.1467 339.499 45.4896L340.749 61.9568C340.749 64.2997 340.496 65.9732 339.99 66.9773C339.484 67.9814 338.621 68.4835 337.401 68.4835C336.181 68.4835 335.318 67.9814 334.812 66.9773C334.306 65.9732 334.053 64.2997 334.053 61.9568C334.053 57.8735 333.577 54.2587 332.625 51.1126C331.673 47.9664 330.244 45.5231 328.34 43.7826C326.465 42.0422 324.203 41.172 321.554 41.172C318.698 41.172 316.138 42.6112 313.877 45.4896C311.615 48.368 309.844 52.3844 308.565 57.5388C307.285 62.6932 306.645 68.4835 306.645 74.9097C306.645 81.4029 305.455 86.7246 306.645 91.879C307.865 96.9664 311.347 101.451 313.52 104.33C315.722 107.208 318.251 110.656 321.108 110.656C323.846 110.656 326.494 107.71 329.054 105.836C331.643 103.895 333.994 101.117 336.107 97.5019C332.625 99.4097 335.571 101.317 336.107 101.317C336.97 101.317 336.657 98.573 337.401 101.317C337.847 102.991 340.928 103.292 340.928 104.832C340.928 107.175 340.451 109.116 339.499 110.656C337.118 114.672 334.306 117.818 331.062 120.094C321.554 115.44 311.957 126.82 308.565 126.82C304.309 126.82 311.702 112.563 308.429 108.346C305.185 104.129 304.056 107.175 302.271 99.8114C300.485 92.448 302.271 86.5572 302.271 77.3195C302.271 68.0818 301.703 67.2116 303.518 59.8482C305.334 52.4848 305.185 44.2847 308.429 40.0675C311.702 35.8503 304.369 29.6248 308.565 29.6248C311.213 29.6248 326.182 27.4158 328.384 29.6248C330.616 31.7669 332.506 34.8462 334.053 38.8625V32.838C334.053 30.4951 334.306 28.8216 334.812 27.8175C335.318 26.8134 336.181 26.3113 337.401 26.3113Z" fill="#D1AB7A"/>
<path d="M378.409 31.9323C383.557 34.8777 383.87 29.5894 387.143 33.7397C390.417 37.89 397.306 47.6447 399.151 55.0751C401.026 62.4385 393.645 60.8504 397.633 76.1127C397.633 85.4173 393.616 93.7848 391.741 101.215C389.896 108.579 390.417 109.917 387.143 114.068C378.409 118.787 380.194 135.421 376.117 135.421C372.04 135.421 376.921 122.033 373.647 117.883C370.374 113.733 359.244 108.579 357.369 101.215C355.524 93.7848 357.369 90.4378 357.369 81.1332C357.369 71.8285 355.524 58.474 357.369 51.1106C359.244 43.6803 347.519 37.1871 350.792 33.0368C354.066 28.8865 374.332 31.9323 378.409 31.9323ZM376.117 42.3749C373.231 42.3749 370.686 43.8142 368.484 46.6926C366.312 49.504 362.845 42.0402 361.655 47.1946C360.464 52.282 361.655 69.5525 361.655 76.1127C361.655 82.6728 362.25 88.53 363.44 93.6844C364.63 98.7718 366.312 102.755 368.484 105.633C370.686 108.445 373.231 109.85 376.117 109.85C379.004 109.85 381.533 108.445 383.706 105.633C385.908 102.755 387.604 98.7718 388.795 93.6844C389.985 88.53 393.645 90.5717 393.645 84.0116C393.645 77.4515 389.985 63.7288 388.795 58.6413C387.604 53.487 387.277 47.3954 385.075 44.584C382.902 41.7055 379.004 42.3749 376.117 42.3749Z" fill="#D1AB7A"/>
<path d="M417.164 31.9323C421.241 31.9323 427.893 34.0409 431.166 38.1912C434.44 42.3415 434.098 43.1113 435.943 50.5416C437.818 57.905 441.657 64.7329 441.657 74.0375C441.657 83.3422 440.719 91.7096 438.844 99.14C436.999 106.503 431.003 110.721 427.729 114.871C424.456 119.021 423.831 126.92 419.754 126.92C415.677 126.92 408.951 107.708 405.678 103.558C402.404 99.4078 399.502 114.001 397.627 106.637C395.782 99.2069 401.393 70.155 401.393 60.8504C401.393 51.5457 403.833 51.9808 405.678 44.6174C407.553 37.1871 403.877 20.843 407.151 16.6927C410.424 12.5425 413.087 31.9323 417.164 31.9323ZM420.141 40.2998C417.254 40.2998 414.71 29.0539 412.508 31.9323C410.335 34.7438 410.305 59.6454 409.115 64.7998C407.925 69.8873 405.678 67.4774 405.678 74.0375C405.678 80.5976 411.317 84.614 412.508 89.7684C413.698 94.8558 410.335 100.68 412.508 103.558C414.71 106.37 417.254 110.486 420.141 110.486C423.027 110.486 425.557 106.37 427.729 103.558C429.931 100.68 432.848 101.717 434.038 96.6297C435.229 91.4754 435.943 87.1243 435.943 80.5642C435.943 74.0041 431.419 64.9672 430.229 59.8797C429.039 54.7254 429.931 44.517 427.729 41.7055C425.557 38.8271 423.027 40.2998 420.141 40.2998Z" fill="#D1AB7A"/>
<path d="M486.642 118.082C487.654 118.082 488.368 118.618 488.785 119.689C489.231 120.693 489.455 122.433 489.455 124.91C489.455 127.387 489.231 129.161 488.785 130.232C488.368 131.236 487.654 131.738 486.642 131.738L477.566 126.416C476.554 126.416 470.439 131.236 469.992 130.232C469.576 129.161 469.367 127.387 469.367 124.91C469.367 122.433 469.576 120.693 469.992 119.689C470.439 118.618 471.168 118.082 472.179 118.082H475.393L462.136 83.8757L456.065 98.636L453.253 119.689L459.324 118.082C460.335 118.082 461.05 118.618 461.466 119.689C461.913 120.693 462.136 122.433 462.136 124.91C462.136 127.387 461.913 129.161 461.466 130.232C461.05 131.236 460.335 131.738 459.324 131.738H444.414C448.328 127.489 442.673 131.236 442.227 130.232C441.81 129.161 441.602 127.387 441.602 124.91C441.602 122.433 441.81 120.693 442.227 119.689C442.673 118.618 443.402 118.082 444.414 118.082L451.184 116.007L453.253 62.7896V31.1605L448.878 17.6072L446.423 21.4542C445.411 21.4542 444.563 10.043 444.117 9.03892C443.7 7.96788 440.709 9.30465 440.709 6.82787C440.709 4.3511 440.918 2.61066 441.334 1.60656C441.781 0.535519 445.009 1.60656 446.021 1.60656L453.253 0C451.184 6.82787 454.979 0.535519 455.395 1.60656C455.842 2.61066 456.065 4.3511 456.065 6.82787V78.6209L464.189 73.5335L475.393 48.5314L469.903 52.6148C468.891 52.6148 468.162 52.1127 467.716 51.1086C467.299 50.0376 467.091 48.2637 467.091 45.7869C467.091 43.3101 467.299 41.5697 467.716 40.5656C468.162 39.4946 468.891 38.959 469.903 38.959L477.566 42.3749C478.578 42.3749 486.538 39.4946 486.955 40.5656C487.401 41.5697 487.624 43.3101 487.624 45.7869C487.624 48.2637 487.401 50.0376 486.955 51.1086C486.538 52.1127 485.824 52.6148 484.812 52.6148H482.178L469.055 78.6209L484.053 118.082H486.642Z" fill="#D1AB7A"/>
<path d="M520.434 40.5656C521.654 40.5656 522.517 41.0676 523.023 42.0717C530.18 36.5493 523.782 44.7493 523.782 47.0922V66.1701C523.782 68.513 523.529 70.1865 523.023 71.1906C522.517 72.1947 521.654 72.6968 520.434 72.6968C519.422 72.6968 518.708 71.8265 518.291 70.0861C517.011 64.597 515.152 60.748 512.711 58.539C510.271 56.263 510.033 50.3369 506.283 50.3369C503.397 50.3369 498.278 56.2965 496.641 58.6394C495.034 60.9153 494.231 64.1284 494.231 68.2787C494.231 70.4208 494.528 72.1612 495.124 73.5C495.749 74.8388 496.656 75.9433 497.847 76.8136C498.829 77.5499 499.96 78.1189 501.239 78.5205C502.549 78.9222 504.23 79.3573 506.283 79.8259C509.17 80.5622 513.232 89.1974 514.988 89.8668C516.773 90.4693 516.714 83.4741 518.291 84.7459C520.672 86.6872 521.713 94.8204 523.023 98.5021C524.362 102.184 525.835 101.715 525.835 107.74C525.835 113.764 525.195 108.856 523.826 113.407C522.487 117.892 520.91 126.753 518.291 129.229C515.702 131.706 514.512 142.389 510.881 142.389C507.667 142.389 503.679 134.045 501.239 132.037C506.239 131.738 495.466 129.696 493.651 125.613H491.776C491.776 127.956 493.398 135.252 492.892 136.256C492.386 137.26 493.249 135.189 491.776 144.861C490.556 144.861 488.22 137.26 487.714 136.256C487.208 135.252 486.955 133.579 486.955 131.236V107.137C486.955 104.794 487.208 103.121 487.714 102.117C488.22 101.113 489.083 108.71 490.303 108.71C490.928 108.71 491.419 100.945 491.776 101.615C492.713 108.711 492.445 103.255 492.713 104.728C493.785 111.154 496.731 117.913 499.23 120.858C501.73 123.803 503.903 123.203 508.069 123.203C511.521 123.203 514.169 121.797 516.014 118.986C517.859 116.174 518.782 112.426 518.782 107.74C518.782 105.464 518.455 103.59 517.8 102.117C517.145 100.644 516.208 99.4392 514.988 98.5021C513.946 97.7657 512.741 97.1633 511.372 96.6947C510.033 96.1592 508.322 95.6571 506.239 95.1886C503.441 94.5192 501.105 93.8163 499.23 93.08C497.356 92.3436 495.63 91.2726 494.052 89.8668C495.124 84.7459 490.184 85.248 488.964 81.8341C487.773 78.3532 487.178 73.8347 487.178 68.2787C487.178 62.4549 487.848 57.4679 489.187 53.3177C490.556 49.1004 495.466 49.7344 497.847 47.5923C500.257 45.4502 499.945 40.5656 502.98 40.5656C505.867 40.5656 508.5 41.5362 510.881 43.4775C513.292 45.4187 513.262 37.2836 514.988 40.7644L517.086 47.0922C517.086 44.7493 517.339 43.0758 517.845 42.0717C518.351 41.0676 519.214 40.5656 520.434 40.5656Z" fill="#D1AB7A"/>
<path d="M541.682 14.1578C542.902 14.1578 543.765 14.6598 544.271 15.6639C544.777 16.668 545.03 18.3415 545.03 20.6844V50.8074L548.839 57.6353L563.376 50.8074C564.388 50.8074 562.959 56.5642 563.376 57.6353C563.822 58.6394 566.188 55.1585 566.188 57.6353C566.188 60.112 565.965 61.886 565.519 62.957C565.102 63.9611 553.288 71.2969 559.225 74.9097L544.271 66.1701L545.03 101.012C545.03 108.644 547.678 123.372 548.839 126.92C550.029 130.468 550.014 123.103 552.931 123.103C555.505 126.853 557.022 122.199 559.225 120.391C561.427 118.584 563.555 116.174 565.608 113.162C566.024 112.493 563.376 119.588 566.992 112.158C568.003 112.158 566.277 117.413 566.992 120.492C567.379 122.232 570.161 120.023 570.161 121.295C570.161 123.437 569.67 125.178 568.688 126.516C566.367 129.797 568.375 124.778 565.519 126.92C562.662 128.995 552.931 131.381 552.931 137.762C547.872 137.762 544.033 127.186 541.682 121.295C539.36 115.337 539.093 98.0335 539.093 86.2521L538.334 64.4631H529.272C528.26 64.4631 527.531 63.9611 527.085 62.957C526.668 61.886 526.46 60.112 526.46 57.6353C526.46 55.1585 526.668 53.4181 527.085 52.414C527.531 51.3429 532.59 53.3196 533.602 53.3196L538.334 50.8074V27.8175C539.093 36.8563 538.587 16.668 539.093 15.6639C539.599 14.6598 540.462 14.1578 541.682 14.1578Z" fill="#D1AB7A"/>
<path d="M587.972 34.3717C592.049 34.3717 595.724 49.7698 598.997 53.9201C602.271 58.0704 604.83 58.7378 606.675 66.1681C608.55 73.5315 606.675 82.0684 606.675 91.373C606.675 100.678 614.13 100.609 612.255 108.039C610.41 115.402 598.834 121.972 595.56 126.123C592.287 130.273 587.972 150.479 587.972 137.762C583.895 137.762 580.176 130.273 576.903 126.123C573.629 121.972 571.098 121.63 569.224 114.266C567.378 106.836 569.224 89.3294 569.224 80.0247C569.224 70.7201 567.378 71.5253 569.224 64.1619C571.098 56.7316 577.065 54.4537 580.339 50.3034C583.612 46.1531 583.895 34.3717 587.972 34.3717ZM589.948 50.1065C587.061 50.1065 582.541 56.8655 580.339 59.7439C578.166 62.5554 576.485 72.9665 575.294 78.1208C574.104 83.2083 573.509 82.6039 573.509 89.164C573.509 95.7241 574.104 101.581 575.294 106.736C576.485 111.823 578.166 115.806 580.339 118.684C582.541 121.496 585.085 122.902 587.972 122.902C587.972 126.414 593.388 121.496 595.56 118.684C597.762 115.806 601.244 115.304 602.435 110.217C603.625 105.062 602.435 95.7241 602.435 89.164C602.435 82.6039 601.839 76.7801 600.649 71.6927C599.459 66.5383 597.762 62.5554 595.56 59.7439C593.388 56.8655 592.834 50.1065 589.948 50.1065Z" fill="#D1AB7A"/>
<path d="M643.725 15.6639C646.433 15.6639 646.329 37.0867 648.323 39.7643C654.527 39.5635 653.456 39.8312 654.527 44.7848C658.188 48.6319 660.33 61.6517 660.33 68.2787L654.527 117.08H658.188C659.2 117.08 659.914 117.615 660.33 118.686C660.777 119.691 661 121.431 661 123.908C661 126.385 660.777 128.158 660.33 129.229C659.914 130.234 659.2 144.861 658.188 144.861L643.725 130.736C642.713 130.736 648.323 128.725 641.538 129.229C641.121 128.158 640.913 126.385 640.913 123.908C640.913 121.431 641.121 119.691 641.538 118.686C641.984 117.615 642.713 117.08 643.725 117.08H647.832L651.137 104.828L648.323 85.6496C648.323 79.692 647.222 59.3107 646.001 55.8299C644.781 52.349 642.981 50.6086 640.6 50.6086C638.071 50.6086 635.437 47.3285 633.235 50.6086C631.062 53.8886 629.589 63.3271 628.28 69.084C626.971 74.8408 623.057 86.5868 623.057 93.6824L626.316 117.08H630.423C631.435 117.08 632.149 117.615 632.565 118.686C633.012 119.691 633.235 121.431 633.235 123.908C633.235 126.385 633.012 128.158 632.565 129.229C632.149 130.234 631.435 130.736 630.423 130.736L623.057 127.018C622.046 127.018 614.219 130.234 613.772 129.229C613.356 128.158 613.148 126.385 613.148 123.908C613.148 121.431 613.356 119.691 613.772 118.686C614.219 117.615 614.948 117.08 615.96 117.08H619.62V62.4569L617.637 50.9078C616.625 50.9078 613.326 51.1106 612.88 50.1065C612.463 49.0355 612.255 47.2616 612.255 44.7848C612.255 42.308 615.96 45.8873 612.88 39.5635C613.326 38.4924 616.625 41.17 617.637 41.17L623.057 37.9569C624.069 37.9569 624.783 38.4924 625.2 39.5635C625.646 40.5676 628.347 49.5021 625.87 44.7848V56.834C627.834 50.0061 630.125 44.7848 632.744 41.17C635.392 37.5553 640.69 15.6639 643.725 15.6639Z" fill="#D1AB7A"/>
<path d="M337.401 26.3113C338.621 26.3113 339.484 26.8134 339.99 27.8175C340.496 28.8216 339.499 43.1467 339.499 45.4896L340.749 61.9568C340.749 64.2997 340.496 65.9732 339.99 66.9773C339.484 67.9814 338.621 68.4835 337.401 68.4835C336.181 68.4835 335.318 67.9814 334.812 66.9773C334.306 65.9732 334.053 64.2997 334.053 61.9568C334.053 57.8735 333.577 54.2587 332.625 51.1126C331.673 47.9664 330.244 45.5231 328.34 43.7826C326.465 42.0422 324.203 41.172 321.554 41.172C318.698 41.172 316.138 42.6112 313.877 45.4896C311.615 48.368 309.844 52.3844 308.565 57.5388C307.285 62.6932 306.645 68.4835 306.645 74.9097C306.645 81.4029 305.455 86.7246 306.645 91.879C307.865 96.9664 311.347 101.451 313.52 104.33C315.722 107.208 318.251 110.656 321.108 110.656C323.846 110.656 326.494 107.71 329.054 105.836C331.643 103.895 333.994 101.117 336.107 97.5019C332.625 99.4097 335.571 101.317 336.107 101.317C336.97 101.317 336.657 98.573 337.401 101.317C337.847 102.991 340.928 103.292 340.928 104.832C340.928 107.175 340.451 109.116 339.499 110.656C337.118 114.672 334.306 117.818 331.062 120.094C321.554 115.44 311.957 126.82 308.565 126.82C304.309 126.82 311.702 112.563 308.429 108.346C305.185 104.129 304.056 107.175 302.271 99.8114C300.485 92.448 302.271 86.5572 302.271 77.3195C302.271 68.0818 301.703 67.2116 303.518 59.8482C305.334 52.4848 305.185 44.2847 308.429 40.0675C311.702 35.8503 304.369 29.6248 308.565 29.6248C311.213 29.6248 326.182 27.4158 328.384 29.6248C330.616 31.7669 332.506 34.8462 334.053 38.8625V32.838C334.053 30.4951 334.306 28.8216 334.812 27.8175C335.318 26.8134 336.181 26.3113 337.401 26.3113Z" fill="#D1AB7A"/>
</g>
<g filter="url(#filter1_dd_91_32)">
<path d="M663.786 110.407L673.832 106.857L680.473 107.019L683.201 116.568L670.409 118.706L663.786 110.407Z" fill="#D1AB7A"/>
</g>
<defs>
<filter id="filter0_ddd_91_32" x="0" y="0" width="665" height="179" filterUnits="userSpaceOnUse" color-interpolation-filters="sRGB">
<feFlood flood-opacity="0" result="BackgroundImageFix"/>
<feColorMatrix in="SourceAlpha" type="matrix" values="0 0 0 0 0 0 0 0 0 0 0 0 0 0 0 0 0 0 127 0" result="hardAlpha"/>
<feOffset dy="4"/>
<feGaussianBlur stdDeviation="2"/>
<feComposite in2="hardAlpha" operator="out"/>
<feColorMatrix type="matrix" values="0 0 0 0 0 0 0 0 0 0 0 0 0 0 0 0 0 0 0.25 0"/>
<feBlend mode="normal" in2="BackgroundImageFix" result="effect1_dropShadow_91_32"/>
<feColorMatrix in="SourceAlpha" type="matrix" values="0 0 0 0 0 0 0 0 0 0 0 0 0 0 0 0 0 0 127 0" result="hardAlpha"/>
<feOffset dy="4"/>
<feGaussianBlur stdDeviation="2"/>
<feComposite in2="hardAlpha" operator="out"/>
<feColorMatrix type="matrix" values="0 0 0 0 0 0 0 0 0 0 0 0 0 0 0 0 0 0 0.25 0"/>
<feBlend mode="normal" in2="effect1_dropShadow_91_32" result="effect2_dropShadow_91_32"/>
<feColorMatrix in="SourceAlpha" type="matrix" values="0 0 0 0 0 0 0 0 0 0 0 0 0 0 0 0 0 0 127 0" result="hardAlpha"/>
<feOffset dy="4"/>
<feGaussianBlur stdDeviation="2"/>
<feComposite in2="hardAlpha" operator="out"/>
<feColorMatrix type="matrix" values="0 0 0 0 0 0 0 0 0 0 0 0 0 0 0 0 0 0 0.25 0"/>
<feBlend mode="normal" in2="effect2_dropShadow_91_32" result="effect3_dropShadow_91_32"/>
<feBlend mode="normal" in="SourceGraphic" in2="effect3_dropShadow_91_32" result="shape"/>
</filter>
<filter id="filter1_dd_91_32" x="659.786" y="106.857" width="27.4147" height="19.8484" filterUnits="userSpaceOnUse" color-interpolation-filters="sRGB">
<feFlood flood-opacity="0" result="BackgroundImageFix"/>
<feColorMatrix in="SourceAlpha" type="matrix" values="0 0 0 0 0 0 0 0 0 0 0 0 0 0 0 0 0 0 127 0" result="hardAlpha"/>
<feOffset dy="4"/>
<feGaussianBlur stdDeviation="2"/>
<feComposite in2="hardAlpha" operator="out"/>
<feColorMatrix type="matrix" values="0 0 0 0 0 0 0 0 0 0 0 0 0 0 0 0 0 0 0.25 0"/>
<feBlend mode="normal" in2="BackgroundImageFix" result="effect1_dropShadow_91_32"/>
<feColorMatrix in="SourceAlpha" type="matrix" values="0 0 0 0 0 0 0 0 0 0 0 0 0 0 0 0 0 0 127 0" result="hardAlpha"/>
<feOffset dy="4"/>
<feGaussianBlur stdDeviation="2"/>
<feComposite in2="hardAlpha" operator="out"/>
<feColorMatrix type="matrix" values="0 0 0 0 0 0 0 0 0 0 0 0 0 0 0 0 0 0 0.25 0"/>
<feBlend mode="normal" in2="effect1_dropShadow_91_32" result="effect2_dropShadow_91_32"/>
<feBlend mode="normal" in="SourceGraphic" in2="effect2_dropShadow_91_32" result="shape"/>
</filter>
</defs>
</svg>
